HIERARCHY
ROOT Hips
{
	OFFSET -3.958830 18.904000 13.208200
	CHANNELS 6 Xposition Yposition Zposition Zrotation Yrotation Xrotation 
	JOINT LHipJoint
	{
		OFFSET 0.000000 0.000000 0.000000
		CHANNELS 3 Zrotation Yrotation Xrotation
		JOINT LeftUpLeg
		{
			OFFSET 1.800000 -1.400000 0.085000
			CHANNELS 3 Zrotation Yrotation Xrotation
			JOINT LeftLeg
			{
				OFFSET 2.215000 -6.000000 0.000000
				CHANNELS 3 Zrotation Yrotation Xrotation
				JOINT LeftFoot
				{
					OFFSET 2.500000 -6.900000 0.000000
					CHANNELS 3 Zrotation Yrotation Xrotation
					JOINT LeftToeBase
					{
						OFFSET 0.200000 -0.500000 1.950000
						CHANNELS 3 Zrotation Yrotation Xrotation
						End Site
						{
							OFFSET 0.000000 0.000000 0.000000
						}
					}
				}
			}
		}
	}
	JOINT RHipJoint
	{
		OFFSET 0.000000 0.000000 0.000000
		CHANNELS 3 Zrotation Yrotation Xrotation
		JOINT RightUpLeg
		{
			OFFSET -1.800000 -1.400000 0.085000
			CHANNELS 3 Zrotation Yrotation Xrotation
			JOINT RightLeg
			{
				OFFSET -2.215000 -6.000000 0.000000
				CHANNELS 3 Zrotation Yrotation Xrotation
				JOINT RightFoot
				{
					OFFSET -2.500000 -6.900000 0.000000
					CHANNELS 3 Zrotation Yrotation Xrotation
					JOINT RightToeBase
					{
						OFFSET -0.200000 -0.500000 1.950000
						CHANNELS 3 Zrotation Yrotation Xrotation
						End Site
						{
							OFFSET 0.000000 0.000000 0.000000
						}
					}
				}
			}
		}
	}
	JOINT LowerBack
	{
		OFFSET 0.000000 0.000000 0.000000
		CHANNELS 3 Zrotation Yrotation Xrotation
		JOINT Spine
		{
			OFFSET -0.087000 1.940000 -0.288900
			CHANNELS 3 Zrotation Yrotation Xrotation
			JOINT Spine1
			{
				OFFSET 0.000000 1.950000 0.060000
				CHANNELS 3 Zrotation Yrotation Xrotation
				JOINT Neck
				{
					OFFSET 0.000000 0.000000 0.000000
					CHANNELS 3 Zrotation Yrotation Xrotation
					JOINT Neck1
					{
						OFFSET 0.000000 1.600000 0.340000
						CHANNELS 3 Zrotation Yrotation Xrotation
						JOINT Head
						{
							OFFSET 0.000000 1.667000 -0.240000
							CHANNELS 3 Zrotation Yrotation Xrotation
							End Site
							{
								OFFSET 0.000000 0.000000 0.000000
							}
						}
					}
				}
				JOINT LeftShoulder
				{
					OFFSET 0.000000 0.000000 0.000000
					CHANNELS 3 Zrotation Yrotation Xrotation
					JOINT LeftArm
					{
						OFFSET 2.700000 1.550000 -0.730000
						CHANNELS 3 Zrotation Yrotation Xrotation
						JOINT LeftForeArm
						{
							OFFSET 5.450000 0.000000 0.000000
							CHANNELS 3 Zrotation Yrotation Xrotation
							JOINT LeftHand
							{
								OFFSET 3.450000 0.000000 0.000000
								CHANNELS 3 Zrotation Yrotation Xrotation
								JOINT LeftHandIndex1
								{
									OFFSET 0.750000 0.000000 0.000000
									CHANNELS 3 Zrotation Yrotation Xrotation
									End Site
									{
										OFFSET 0.000000 0.000000 0.000000
									}
								}
							}
						}
					}
				}
				JOINT RightShoulder
				{
					OFFSET 0.000000 0.000000 0.000000
					CHANNELS 3 Zrotation Yrotation Xrotation
					JOINT RightArm
					{
						OFFSET -2.700000 1.550000 -0.730000
						CHANNELS 3 Zrotation Yrotation Xrotation
						JOINT RightForeArm
						{
							OFFSET -5.450000 0.000000 0.000000
							CHANNELS 3 Zrotation Yrotation Xrotation
							JOINT RightHand
							{
								OFFSET -3.450000 0.000000 0.000000
								CHANNELS 3 Zrotation Yrotation Xrotation
								JOINT RightHandIndex1
								{
									OFFSET -0.750000 0.000000 0.000000
									CHANNELS 3 Zrotation Yrotation Xrotation
									End Site
									{
										OFFSET 0.000000 0.000000 0.000000
									}
								}
							}
						}
					}
				}
			}
		}
	}
}
MOTION
Frames: 4
Frame Time: 0.016667
-0.845700 17.526360 -2.327570 -21.012037 -11.309621 -2.759475 -14.692965 11.861488 1.570300 22.822611 0.244384 -10.886801 2.217338 4.418135 10.538762 -0.929493 4.271030 3.123380 0.884340 0.132400 0.970370 18.841621 -9.468118 5.870973 -12.508297 10.690539 -42.275489 88.523183 -59.432483 38.890618 -3.375503 -12.972587 0.605626 0.125660 -0.048960 0.223790 -5.040903 0.247847 -8.931969 4.305424 -3.483885 29.587157 -22.949107 0.790271 10.564283 4.965012 0.631483 -14.735627 0.864659 9.677376 59.212879 3.897060 9.632490 -12.647550 -9.253388 -20.772590 8.491202 -30.571324 -0.236582 -12.293104 -68.915357 -57.319222 29.204305 -3.270936 3.221684 1.196940 -0.113790 0.155540 0.171160 -1.140902 20.904346 8.559152 67.077317 24.339258 -6.417644 57.075518 44.623154 13.199052 1.907938 -1.738867 -0.339810 0.258390 -0.190370 -0.642580 
-0.822910 17.505400 -2.350820 -21.286054 -11.841959 -2.860735 -14.668985 11.788755 1.575326 23.372370 0.369930 -11.134488 1.522357 4.692936 11.240619 -0.936846 4.372825 3.053265 0.919650 0.157980 1.017910 18.875014 -9.407125 5.954478 -12.667801 11.261635 -43.215899 86.583501 -61.860779 41.770996 -3.456671 -13.194308 0.526547 0.140440 -0.094930 0.238730 -5.136571 0.323127 -8.966972 5.277000 -3.973136 30.404252 -23.602360 0.574852 10.207602 5.149773 0.027932 -14.848087 -0.619736 10.356373 60.288359 3.032820 9.835350 -13.644130 -10.284966 -21.421616 8.595120 -29.676674 0.273023 -12.509196 -70.192613 -56.773733 29.362758 -3.235975 3.238392 1.221980 -0.142710 0.186980 0.155690 -0.492825 21.973554 8.404624 65.862103 25.150236 -6.437154 55.569065 43.197371 12.069226 1.923598 -1.716224 -0.325030 0.242530 -0.198960 -0.658840 
-0.817720 17.488790 -2.378230 -20.606740 -12.148298 -3.199353 -14.680879 11.844124 1.480710 22.611893 0.461958 -11.807087 1.777887 4.754997 12.675639 -0.979750 4.336701 3.027156 0.935460 0.177410 1.035150 18.868091 -9.353860 6.075370 -13.575297 11.643882 -43.553811 83.911283 -62.140071 44.151591 -3.498089 -13.389923 0.456206 0.153270 -0.120950 0.265540 -5.110136 0.255018 -8.951570 4.575747 -3.871928 31.396132 -23.537234 0.521393 10.086615 5.146078 -0.487897 -14.855213 -1.871582 11.145946 60.772043 2.169290 10.214910 -14.565520 -10.313143 -21.821268 8.586070 -29.097511 0.193958 -12.714287 -71.091691 -56.773046 29.694233 -3.241702 3.252293 1.230000 -0.144660 0.205100 0.130910 -0.381031 22.783115 8.218661 65.682474 26.314436 -6.285897 54.050036 41.958316 11.020225 1.923294 -1.701945 -0.306770 0.221240 -0.185230 -0.667590 
-0.814160 17.455960 -2.390240 -19.879351 -11.821424 -2.670715 -14.676162 11.879760 1.400500 21.273240 0.311829 -13.431805 2.487371 4.612357 14.083316 -1.028938 4.173376 3.046950 0.918180 0.164120 1.040870 18.883421 -9.332295 6.194484 -15.249148 11.616497 -44.315717 82.529945 -59.757520 43.885754 -3.472572 -13.380076 0.440325 0.134910 -0.145880 0.287730 -5.131421 0.256020 -8.958733 4.322277 -3.938853 31.401604 -24.059916 0.212957 9.520159 5.206218 -0.069804 -14.806826 -0.989108 10.943016 62.099276 1.148810 10.970530 -15.034000 -11.396613 -21.777213 8.528187 -27.928646 0.721671 -12.413356 -73.558375 -56.029983 30.751273 -3.259553 3.258248 1.236830 -0.140120 0.220420 0.093620 0.494085 22.297667 7.894187 66.527362 26.390957 -5.759945 53.489017 40.756070 10.609754 1.931285 -1.683458 -0.290520 0.191250 -0.162840 -0.679780 
